Coordinates
version=1
nRows=18
nColumns=32
inDegrees=yes

Units are S.I. units (second, meters, Newtons, ...)
If the header above contains a line with 'inDegrees', this indicates whether rotational values are in degrees (yes) or radians (no).

endheader
time	pelvis_tilt	pelvis_list	pelvis_rotation	pelvis_tx	pelvis_ty	pelvis_tz	hip_flexion_r	hip_adduction_r	hip_rotation_r	knee_angle_r	knee_adduction_r	med_cond_adduction_r	lat_cond_adduction_r	patella_r_constrained_knee_angle	ankle_angle_r	subtalar_angle_r	mtp_angle_r	hip_flexion_l	hip_adduction_l	hip_rotation_l	knee_angle_l	knee_adduction_l	med_cond_adduction_l	lat_cond_adduction_l	patella_l_constrained_knee_angle	ankle_angle_l	subtalar_angle_l	mtp_angle_l	lumbar_extension	lumbar_bending	lumbar_rotation
      0.61500000	      3.78291688	     -4.74478625	     -7.29122932	      0.23361409	      0.91014932	      0.22058408	    -25.14613134	     -1.32842914	     -5.11014423	     -8.98055041	      3.19826529	      0.00000000	      0.00000000	     -0.15674017	     -0.96291136	      5.52161301	     -0.00000000	     22.26178260	    -11.79392570	    -24.74694310	    -11.12122462	      1.12589831	      0.00000000	      0.00000000	     -0.19410199	     -4.14432372	      9.69321166	     -0.00000000	     -6.62614169	      3.08508566	     -0.68309829
      0.62000000	      3.95506169	     -4.34593936	     -7.50573635	      0.24121980	      0.91048273	      0.22039795	    -25.22241902	     -1.88597480	     -5.02512841	     -9.83604252	      2.96734066	      0.00000000	      0.00000000	     -0.17167133	     -1.61073492	      5.50244249	      0.00000000	     21.97576906	    -11.44741755	    -24.71896315	    -11.83069895	      1.06207722	     -0.00000000	     -0.00000000	     -0.20648465	     -4.63902999	      9.01737868	      0.00000000	     -6.72968504	      2.53804148	     -0.18133600
      0.62500000	      4.07614526	     -3.95117795	     -7.67292934	      0.24891197	      0.91079835	      0.22008947	    -25.21095902	     -2.42136625	     -5.05746630	    -10.72840164	      2.71916629	      0.00000000	      0.00000000	     -0.18724593	     -2.47355087	      5.54538666	     -0.00000000	     21.78667259	    -11.12599713	    -24.68779840	    -12.62692321	      1.02830032	     -0.00000000	     -0.00000000	     -0.22038138	     -5.10949531	      8.42201006	     -0.00000000	     -6.75250056	      2.03966768	      0.34184178
      0.63000000	      4.17093920	     -3.73005906	     -7.91296820	      0.25656113	      0.91122601	      0.22008812	    -25.17482163	     -2.71263879	     -4.79846389	    -11.55209429	      2.37880643	      0.00000000	      0.00000000	     -0.20162208	     -3.57700660	      5.27827134	      0.00000000	     21.62732057	    -11.14277030	    -24.74089782	    -13.59414327	      1.13675963	      0.00000000	      0.00000000	     -0.23726256	     -5.43513051	      8.01717510	      0.00000000	     -6.78171494	      1.81624553	      1.09823052
      0.63500000	      4.32332168	     -3.47091146	     -8.34014071	      0.26417804	      0.91195601	      0.22054525	    -25.13275836	     -3.07448644	     -4.27340998	    -12.41469476	      2.01571937	      0.00000000	      0.00000000	     -0.21667730	     -4.83447044	      4.70356426	     -0.00000000	     21.26065596	    -11.19137195	    -24.96893732	    -14.39628696	      1.29596944	      0.00000000	      0.00000000	     -0.25126261	     -5.79800660	      7.61849451	     -0.00000000	     -6.88045744	      1.42109245	      1.95207562
      0.64000000	      4.32214869	     -3.18392620	     -8.06525269	      0.27187600	      0.91218195	      0.21914158	    -24.91038688	     -3.36285224	     -4.72672888	    -13.46095495	      1.81960013	      0.00000000	      0.00000000	     -0.23493798	     -5.98894488	      4.72400900	      0.00000000	     21.35541676	    -10.73752547	    -24.23867956	    -15.21626762	      1.20089216	      0.00000000	      0.00000000	     -0.26557397	     -6.17398488	      6.83047462	     -0.00000000	     -6.74731741	      0.94293358	      1.63637317
      0.64500000	      4.39980542	     -2.90248572	     -8.17913990	      0.27956101	      0.91275381	      0.21883735	    -24.65904719	     -3.69350740	     -4.73943029	    -14.59762932	      1.50178800	      0.00000000	      0.00000000	     -0.25477669	     -7.23843500	      4.47477856	      0.00000000	     21.18414411	    -10.60030078	    -24.12514476	    -16.04938085	      1.30834393	     -0.00000000	     -0.00000000	     -0.28011454	     -6.44866679	      6.45496166	     -0.00000000	     -6.72073729	      0.60280462	      2.17280031
      0.65000000	      4.45037020	     -2.75865133	     -8.26404183	      0.28717291	      0.91339055	      0.21841809	    -24.35441865	     -3.84221632	     -4.63800926	    -15.74098573	      1.16569787	     -0.00000000	      0.00000000	     -0.27473203	     -8.67581143	      4.03013115	     -0.00000000	     21.04415709	    -10.60191316	    -23.88971527	    -16.90471260	      1.44815501	     -0.00000000	     -0.00000000	     -0.29504289	     -6.62058927	      6.04446124	      0.00000000	     -6.70295619	      0.37425916	      2.53715159
      0.65500000	      4.47753183	     -2.42259193	     -8.21442151	      0.29490289	      0.91389918	      0.21767369	    -23.91029572	     -4.22714091	     -4.97721467	    -17.12051248	      0.90559547	     -0.00000000	     -0.00000000	     -0.29880931	    -10.00750332	      3.86692987	      0.00000000	     20.94327200	    -10.27163828	    -23.61829499	    -17.64662574	      1.48588236	     -0.00000000	     -0.00000000	     -0.30799172	     -6.76497646	      5.66546651	     -0.00000000	     -6.59424891	     -0.00247217	      2.86184425
      0.66000000	      4.47932362	     -2.14806692	     -8.15601930	      0.30262553	      0.91439706	      0.21691730	    -23.38280533	     -4.52533270	     -5.30855199	    -18.57337133	      0.60320280	     -0.00000000	     -0.00000000	     -0.32416648	    -11.41614961	      3.63173286	     -0.00000000	     20.86820834	    -10.02673701	    -23.34431890	    -18.43193504	      1.56231926	     -0.00000000	     -0.00000000	     -0.32169795	     -6.75608412	      5.38579341	     -0.00000000	     -6.46029107	     -0.34231613	      3.10403602
      0.66500000	      4.52242175	     -1.77761583	     -8.22382915	      0.31030063	      0.91505097	      0.21645355	    -22.77029881	     -4.99441704	     -5.60050614	    -20.19506405	      0.32025120	      0.00000000	      0.00000000	     -0.35247036	    -12.81338909	      3.37415644	     -0.00000000	     20.60168316	     -9.66363734	    -23.13864470	    -18.95273456	      1.66096189	      0.00000000	      0.00000000	     -0.33078762	     -6.80211402	      4.89423447	     -0.00000000	     -6.37150172	     -0.75616779	      3.59260752
      0.67000000	      4.52069280	     -1.43234644	     -8.15198635	      0.31801534	      0.91555054	      0.21562663	    -22.07648257	     -5.42511899	     -6.09060329	    -21.89485357	      0.05165347	     -0.00000000	     -0.00000000	     -0.38213728	    -14.21755878	      3.17463853	      0.00000000	     20.46684011	     -9.28741768	    -22.94853157	    -19.60146972	      1.71051770	     -0.00000000	     -0.00000000	     -0.34211018	     -6.65343846	      4.69125048	      0.00000000	     -6.20623244	     -1.19612804	      3.75823750
      0.67500000	      4.51755964	     -1.20521519	     -8.19554579	      0.32566876	      0.91614116	      0.21509279	    -21.32786341	     -5.73100820	     -6.33404979	    -23.61152899	     -0.23744485	      0.00000000	      0.00000000	     -0.41209892	    -15.80399349	      2.61690957	     -0.00000000	     20.27584200	     -9.14937560	    -22.91768291	    -20.28578128	      1.87258903	      0.00000000	      0.00000000	     -0.35405367	     -6.39312825	      4.57839687	     -0.00000000	     -6.07406258	     -1.39287174	      4.23263048
      0.68000000	      4.49452971	     -0.50294051	     -8.09627759	      0.33337155	      0.91649604	      0.21410504	    -20.34993869	     -6.67715507	     -7.25344492	    -25.74769124	     -0.45905264	     -0.00000000	     -0.00000000	     -0.44938199	    -16.95910502	      2.72688678	      0.00000000	     20.05293764	     -8.16408847	    -22.66560671	    -20.50389138	      1.73926755	     -0.00000000	     -0.00000000	     -0.35786041	     -6.29521229	      4.01252015	     -0.00000000	     -5.82809662	     -2.21380950	      4.40896517
      0.68500000	      4.45003331	      0.02126144	     -8.06496067	      0.34099310	      0.91687805	      0.21327970	    -19.33800994	     -7.42104043	     -7.89975633	    -27.83824265	     -0.69911442	     -0.00000000	     -0.00000000	     -0.48586899	    -18.27433185	      2.46865396	     -0.00000000	     19.84538509	     -7.49368026	    -22.58663924	    -20.85787497	      1.71354065	      0.00000000	     -0.00000000	     -0.36403859	     -6.03429662	      3.70101209	      0.00000000	     -5.58367319	     -2.80259104	      4.67537664
      0.69000000	      4.38967712	      0.61642430	     -8.07416325	      0.34857690	      0.91720142	      0.21255747	    -18.22404056	     -8.28000337	     -8.55046189	    -30.03736844	     -0.95290307	      0.00000000	      0.00000000	     -0.52425098	    -19.55142152	      2.17993678	     -0.00000000	     19.59980528	     -6.72702234	    -22.54880659	    -21.08680572	      1.67171787	     -0.00000000	     -0.00000000	     -0.36803419	     -5.76071021	      3.33644107	     -0.00000000	     -5.32049488	     -3.42481948	      5.07671723
      0.69500000	      4.33087251	      1.39591125	     -8.10500759	      0.35618705	      0.91743484	      0.21181207	    -17.03573294	     -9.42723120	     -9.27000223	    -32.34005327	     -1.13711674	     -0.00000000	     -0.00000000	     -0.56444041	    -20.74976222	      1.85297289	      0.00000000	     19.32840426	     -5.71325368	    -22.69045615	    -21.19880180	      1.53198211	      0.00000000	      0.00000000	     -0.36998889	     -5.45873913	      3.08614329	     -0.00000000	     -4.99381224	     -4.30012688	      5.41600438
      0.70000000	      4.24526090	      2.29169833	     -8.19513025	      0.36377817	      0.91755413	      0.21114975	    -15.73541051	    -10.76824754	     -9.93581009	    -34.73385301	     -1.29630305	      0.00000000	      0.00000000	     -0.60622010	    -21.87203483	      1.54940251	      0.00000000	     19.04232392	     -4.56355353	    -22.92711205	    -21.18325937	      1.36464942	      0.00000000	      0.00000000	     -0.36971762	     -5.18139099	      2.82359209	      0.00000000	     -4.61290286	     -5.27402762	      5.90013330
